<svg viewBox="0 0 64 64" fill="none" xmlns="http://www.w3.org/2000/svg">
  <!-- Greedant: Abstract squirrel face, minimal line-art, monochrome -->
  <!-- Head shape -->
  <path d="M32 8C20 8 14 16 14 26c0 6 2 10 5 14 2 3 3 6 3 10v2h20v-2c0-4 1-7 3-10 3-4 5-8 5-14 0-10-6-18-18-18z"
    stroke="currentColor" stroke-width="2.5" fill="none"/>
  <!-- Eyes -->
  <circle cx="24" cy="26" r="3" fill="currentColor"/>
  <circle cx="40" cy="26" r="3" fill="currentColor"/>
  <!-- Mouth/smile -->
  <path d="M26 34c2 2 4 3 6 3s4-1 6-3"
    stroke="currentColor" stroke-width="2" stroke-linecap="round" fill="none"/>
  <!-- Left ear (squirrel tuft) -->
  <path d="M14 18c-3-3-7-4-9-2s-1 6 2 9"
    stroke="currentColor" stroke-width="2" stroke-linecap="round" fill="none"/>
  <!-- Right ear (squirrel tuft) -->
  <path d="M50 18c3-3 7-4 9-2s1 6-2 9"
    stroke="currentColor" stroke-width="2" stroke-linecap="round" fill="none"/>
  <!-- Tail hint -->
  <path d="M44 52c4 2 8 5 10 3s0-6-3-8"
    stroke="currentColor" stroke-width="2" stroke-linecap="round" fill="none"/>
</svg>
